<svg width="512" height="512" viewBox="0 0 512 512" fill="none" xmlns="http://www.w3.org/2000/svg"><g clip-path="url(#clip0_2_2)"><path fill-rule="evenodd" clip-rule="evenodd" d="M325 0H269V0.000787043L55.5 318.663V141.5H-2.89679e-05L-4.68051e-05 401.5L-4.67453e-05 512L306.564 57.5H325V0ZM55.5 0H-2.89679e-05V90.5H55.5V57.5H128L130.951 57.5L169.5 0.00277539V0H128H55.5ZM375 0H512L473.707 57.3542L473.697 57.3697L341.08 256L512 512H444.5L363 512V453H404.859L272.5 256L405.117 57.3697H375V0ZM185.159 389.297L267.5 511.997V512H325.5V453H302.34L222.268 333.681L185.159 389.297Z" fill="url(#paint0_linear_2_2)"/></g><defs><linearGradient id="paint0_linear_2_2" x1="551.1" y1="465.966" x2="-30.8154" y2="58.2948" gradientUnits="userSpaceOnUse"><stop stop-color="#434343"/><stop offset="1" stop-color="white"/></linearGradient><clipPath id="clip0_2_2"><rect width="512" height="512" fill="white"/></clipPath></defs></svg>